#!OML:ASF X:\für Bonn\!DataBase\2005_08_11_Bastian_Final\c3d\Bastian.ASF
:FULLY-SPECIFIED
:DEGREES
184
root 2.20295 16.6671 -16.7038 164.738 18.9961 -179.168
lowerback 10.9963 -4.99822 -4.22855
upperback 7.76351 -6.22726 -0.882345
thorax 2.36305 -2.94264 1.96698
lowerneck -6.38787 0.248696 -3.07253
upperneck -2.47148 0.992244 12.0159
head 0.266725 0.79885 4.55085
rclavicle 7.20594e-014 -9.14409e-015
rhumerus -48.4688 15.6663 -103.361
rradius 107.086
rwrist 10.6459
rhand -17.5525 11.1762
rfingers 7.12502
rthumb 8.7022 -18.6244
lclavicle 7.20594e-014 -9.14409e-015
lhumerus -19.3177 -17.0198 91.497
lradius 104.652
lwrist 29.9042
lhand -1.36423 -28.8721
lfingers 7.12502
lthumb 24.2831 -0.390041
rfemur -21.7677 15.3555 21.7086
rtibia 44.839
rfoot -0.0926398 -5.92472
rtoes 0.643952
lfemur 19.4799 6.87405 -8.52913
ltibia 40.0662
lfoot -15.97 -6.88804
ltoes -37.4051
185
root 2.11809 16.6571 -16.5617 165.268 19.0571 -178.9
lowerback 11.3035 -4.99539 -4.15516
upperback 7.71313 -6.2306 -0.799839
thorax 2.14482 -2.93829 2.04192
lowerneck -6.80385 0.270547 -2.80582
upperneck -2.68889 1.05485 12.0543
head 0.265537 0.847767 4.5162
rclavicle -1.05256e-013 -6.36111e-015
rhumerus -48.0859 16.258 -103.289
rradius 107.393
rwrist 10.0499
rhand -17.3933 11.1185
rfingers 7.12502
rthumb 8.85584 -18.6756
lclavicle -1.05256e-013 -6.36111e-015
lhumerus -19.05 -18.7332 92.3435
lradius 105.026
lwrist 29.1176
lhand -1.44598 -28.6412
lfingers 7.12502
lthumb 24.2047 -0.1487
rfemur -22.6679 15.9352 21.5014
rtibia 44.55
rfoot 0.406082 -6.40917
rtoes 0.993813
lfemur 19.1254 7.21149 -8.50911
ltibia 39.2506
lfoot -17.4624 -6.69817
ltoes -36.6811
186
root 2.0352 16.6523 -16.4218 165.741 19.1008 -178.683
lowerback 11.6331 -4.97241 -4.11899
upperback 7.65919 -6.2097 -0.736618
thorax 1.91191 -2.92186 2.11748
lowerneck -7.15525 0.276096 -2.57054
upperneck -2.91285 1.09689 12.1088
head 0.252219 0.884367 4.4928
rclavicle 2.88486e-014 -9.54166e-015
rhumerus -47.7142 16.8053 -103.188
rradius 107.68
rwrist 9.38563
rhand -17.1409 11.0916
rfingers 7.12502
rthumb 9.09943 -18.6921
lclavicle 2.88486e-014 -9.54166e-015
lhumerus -18.8415 -20.4437 93.1183
lradius 105.307
lwrist 28.5187
lhand -1.50309 -28.2967
lfingers 7.12502
lthumb 24.1499 0.203159
rfemur -23.477 16.34 21.2371
rtibia 44.2545
rfoot 0.743148 -6.85147
rtoes 1.21703
lfemur 18.6882 7.51526 -8.54889
ltibia 38.5371
lfoot -18.7779 -6.53888
ltoes -35.6589
187
root 1.95769 16.6518 -16.2844 166.125 19.1031 -178.555
lowerback 11.9575 -4.9245 -4.207
upperback 7.64222 -6.15938 -0.69297
thorax 1.73214 -2.89345 2.23536
lowerneck -7.47377 0.256525 -2.3499
upperneck -3.19307 1.11206 12.1483
head 0.216836 0.905137 4.46559
rclavicle 2.18663e-015 -7.95139e-015
rhumerus -47.3633 17.2668 -103.065
rradius 107.887
rwrist 8.74354
rhand -16.9458 11.1445
rfingers 7.12502
rthumb 9.2876 -18.631
lclavicle 2.18663e-015 -7.95139e-015
lhumerus -18.5938 -22.1293 93.7729
lradius 105.511
lwrist 28.1068
lhand -1.58568 -27.83
lfingers 7.12502
lthumb 24.0707 0.680304
rfemur -24.1823 16.695 20.8994
rtibia 43.9742
rfoot 0.788789 -7.29655
rtoes 0.853856
lfemur 18.1971 7.79542 -8.65551
ltibia 37.8973
lfoot -19.8839 -6.43394
ltoes -34.4784
188
root 1.89323 16.6536 -16.1504 166.458 19.0606 -178.543
lowerback 12.2275 -4.84729 -4.51229
upperback 7.61477 -6.09204 -0.662913
thorax 1.59384 -2.86542 2.45164
lowerneck -7.76242 0.223802 -2.22018
upperneck -3.43246 1.11288 12.2674
head 0.190163 0.920596 4.48552
rclavicle 1.03617e-013 -6.75868e-015
rhumerus -47.1117 17.5845 -102.981
rradius 108
rwrist 8.12652
rhand -16.7332 11.3403
rfingers 7.12502
rthumb 9.49276 -18.4259
lclavicle 1.03617e-013 -6.75868e-015
lhumerus -18.469 -23.769 94.36
lradius 105.722
lwrist 27.9143
lhand -1.56863 -27.2838
lfingers 7.12502
lthumb 24.0871 1.22431
rfemur -24.8213 17.0079 20.5051
rtibia 43.7593
rfoot 0.560973 -7.80833
rtoes -0.0164453
lfemur 17.6706 8.08223 -8.79431
ltibia 37.294
lfoot -20.7075 -6.50146
ltoes -33.3935
